<svg width="45" height="44" viewBox="0 0 45 44" fill="none" xmlns="http://www.w3.org/2000/svg">
<path d="M16.2144 31.4287C24.8931 31.4287 31.9287 24.3932 31.9287 15.7144C31.9287 14.7308 31.8383 13.7683 31.6654 12.8348C30.7319 12.6619 29.7694 12.5715 28.7858 12.5715C20.1071 12.5715 13.0715 19.6071 13.0715 28.2858C13.0715 29.2694 13.1619 30.2319 13.3348 31.1654C14.2683 31.3383 15.2308 31.4287 16.2144 31.4287Z" fill="#175CD3"/>
<path fill-rule="evenodd" clip-rule="evenodd" d="M13.3347 31.1653C6.03118 29.8127 0.5 23.4095 0.5 15.7143C0.5 7.03553 7.53553 0 16.2143 0C23.9095 0 30.3128 5.53118 31.6653 12.8347C30.7318 12.6618 29.7693 12.5714 28.7857 12.5714C20.107 12.5714 13.0714 19.607 13.0714 28.2857C13.0714 29.2693 13.1618 30.2318 13.3347 31.1653Z" fill="#1570EF"/>
<path fill-rule="evenodd" clip-rule="evenodd" d="M16.2143 31.4286C24.8931 31.4286 31.9286 24.3931 31.9286 15.7143C31.9286 14.7307 31.8382 13.7682 31.6654 12.8347C38.9689 14.1873 44.5 20.5906 44.5 28.2858C44.5 36.9645 37.4645 44 28.7858 44C21.0906 44 14.6873 38.4689 13.3347 31.1654C14.2682 31.3382 15.2307 31.4286 16.2143 31.4286Z" fill="#2E90FA"/>
</svg>
