<svg width="93" height="48" viewBox="0 0 93 48" fill="none" xmlns="http://www.w3.org/2000/svg">
<path d="M8.2921 31.424H14.8721V34H5.1001V14.54H8.2921V31.424Z" fill="#2B2B2E"/>
<path d="M16.4775 26.216C16.4775 24.6667 16.7948 23.2947 17.4295 22.1C18.0828 20.9054 18.9602 19.9814 20.0615 19.328C21.1815 18.656 22.4135 18.32 23.7575 18.32C24.9708 18.32 26.0255 18.5627 26.9215 19.048C27.8362 19.5147 28.5642 20.1027 29.1055 20.812V18.572H32.3255V34H29.1055V31.704C28.5642 32.432 27.8268 33.0387 26.8935 33.524C25.9602 34.0094 24.8962 34.252 23.7015 34.252C22.3762 34.252 21.1628 33.916 20.0615 33.244C18.9602 32.5534 18.0828 31.6014 17.4295 30.388C16.7948 29.156 16.4775 27.7654 16.4775 26.216ZM29.1055 26.272C29.1055 25.208 28.8815 24.284 28.4335 23.5C28.0042 22.716 27.4348 22.1187 26.7255 21.708C26.0162 21.2974 25.2508 21.092 24.4295 21.092C23.6082 21.092 22.8428 21.2974 22.1335 21.708C21.4242 22.1 20.8455 22.688 20.3975 23.472C19.9682 24.2374 19.7535 25.152 19.7535 26.216C19.7535 27.28 19.9682 28.2134 20.3975 29.016C20.8455 29.8187 21.4242 30.4347 22.1335 30.864C22.8615 31.2747 23.6268 31.48 24.4295 31.48C25.2508 31.48 26.0162 31.2747 26.7255 30.864C27.4348 30.4534 28.0042 29.856 28.4335 29.072C28.8815 28.2694 29.1055 27.336 29.1055 26.272Z" fill="#2B2B2E"/>
<path d="M50.4061 18.572L40.9421 41.252H37.6381L40.7741 33.748L34.6981 18.572H38.2541L42.5941 30.332L47.1021 18.572H50.4061Z" fill="#2B2B2E"/>
<path d="M66.9549 25.908C66.9549 26.4867 66.9176 27.0094 66.8429 27.476H55.0549C55.1483 28.708 55.6056 29.6974 56.4269 30.444C57.2483 31.1907 58.2563 31.564 59.4509 31.564C61.1683 31.564 62.3816 30.8454 63.0909 29.408H66.5349C66.0683 30.8267 65.2189 31.9934 63.9869 32.908C62.7736 33.804 61.2616 34.252 59.4509 34.252C57.9763 34.252 56.6509 33.9254 55.4749 33.272C54.3176 32.6 53.4029 31.6667 52.7309 30.472C52.0776 29.2587 51.7509 27.8587 51.7509 26.272C51.7509 24.6854 52.0683 23.2947 52.7029 22.1C53.3563 20.8867 54.2616 19.9534 55.4189 19.3C56.5949 18.6467 57.9389 18.32 59.4509 18.32C60.9069 18.32 62.2043 18.6374 63.3429 19.272C64.4816 19.9067 65.3683 20.8027 66.0029 21.96C66.6376 23.0987 66.9549 24.4147 66.9549 25.908ZM63.6229 24.9C63.6043 23.724 63.1843 22.7814 62.3629 22.072C61.5416 21.3627 60.5243 21.008 59.3109 21.008C58.2096 21.008 57.2669 21.3627 56.4829 22.072C55.6989 22.7627 55.2323 23.7054 55.0829 24.9H63.6229Z" fill="#2B2B2E"/>
<path d="M73.2882 20.812C73.7548 20.028 74.3708 19.4214 75.1362 18.992C75.9202 18.544 76.8442 18.32 77.9082 18.32V21.624H77.0962C75.8455 21.624 74.8935 21.9414 74.2402 22.576C73.6055 23.2107 73.2882 24.312 73.2882 25.88V34H70.0962V18.572H73.2882V20.812Z" fill="#2B2B2E"/>
<path d="M86.4423 34.252C85.2289 34.252 84.1369 34.0374 83.1663 33.608C82.2143 33.16 81.4583 32.5627 80.8983 31.816C80.3383 31.0507 80.0396 30.2014 80.0023 29.268H83.3063C83.3623 29.9214 83.6703 30.472 84.2303 30.92C84.8089 31.3494 85.5276 31.564 86.3863 31.564C87.2823 31.564 87.9729 31.396 88.4583 31.06C88.9623 30.7054 89.2143 30.2574 89.2143 29.716C89.2143 29.1374 88.9343 28.708 88.3743 28.428C87.8329 28.148 86.9649 27.84 85.7703 27.504C84.6129 27.1867 83.6703 26.8787 82.9423 26.58C82.2143 26.2814 81.5796 25.824 81.0383 25.208C80.5156 24.592 80.2543 23.78 80.2543 22.772C80.2543 21.9507 80.4969 21.204 80.9823 20.532C81.4676 19.8414 82.1583 19.3 83.0543 18.908C83.9689 18.516 85.0143 18.32 86.1903 18.32C87.9449 18.32 89.3543 18.768 90.4183 19.664C91.5009 20.5414 92.0796 21.7454 92.1543 23.276H88.9623C88.9063 22.5854 88.6263 22.0347 88.1223 21.624C87.6183 21.2134 86.9369 21.008 86.0783 21.008C85.2383 21.008 84.5943 21.1667 84.1463 21.484C83.6983 21.8014 83.4743 22.2214 83.4743 22.744C83.4743 23.1547 83.6236 23.5 83.9223 23.78C84.2209 24.06 84.5849 24.284 85.0143 24.452C85.4436 24.6014 86.0783 24.7974 86.9183 25.04C88.0383 25.3387 88.9529 25.6467 89.6623 25.964C90.3903 26.2627 91.0156 26.7107 91.5383 27.308C92.0609 27.9054 92.3316 28.6987 92.3503 29.688C92.3503 30.5654 92.1076 31.3494 91.6223 32.04C91.1369 32.7307 90.4463 33.272 89.5503 33.664C88.6729 34.056 87.6369 34.252 86.4423 34.252Z" fill="#2B2B2E"/>
</svg>
